<svg version="1.1" id="Layer_1" xmlns="http://www.w3.org/2000/svg" xmlns:xlink="http://www.w3.org/1999/xlink" x="0px" y="0px" width="2048" viewBox="0 0 1024 1024" enable-background="new 0 0 1024 1024" xml:space="preserve" height="2048">
<path fill="#000000" opacity="1.000000" stroke="none" d="
M209.456055,504.554779 
	C219.051895,483.563660 234.504028,467.761902 251.050827,452.857605 
	C254.142960,450.072388 257.217773,447.178497 260.681519,444.918579 
	C264.755707,442.260376 264.528717,438.813599 264.540802,434.588898 
	C264.563019,426.833740 261.125946,422.467316 254.853241,417.934692 
	C229.504578,399.617798 216.179749,374.104431 215.050552,343.014557 
	C213.552826,301.777802 238.211868,264.391327 277.593140,251.563385 
	C282.999817,249.802216 285.645874,247.563080 286.136505,241.418945 
	C288.024994,217.770691 299.619873,198.508102 315.119934,181.345932 
	C328.408081,166.632858 341.971497,152.226730 352.754242,135.407181 
	C366.451141,114.041817 374.020630,90.316589 380.678436,66.192924 
	C383.022064,57.701054 384.806305,49.053421 386.786804,40.463272 
	C387.852997,35.838711 390.161896,32.382545 395.222534,31.886860 
	C400.426392,31.377153 403.802826,36.157608 403.537079,42.457813 
	C402.512146,66.758240 403.589386,90.960999 407.087433,115.058167 
	C407.756866,119.669617 409.467072,119.906548 413.400299,118.449226 
	C439.345917,108.835953 466.211639,103.225311 493.822418,102.080933 
	C521.886353,100.917763 549.167542,106.329857 576.039673,113.980690 
	C595.101868,119.407936 614.227234,124.653145 631.849976,134.100601 
	C637.762634,137.270355 642.798340,141.686172 648.366455,145.342957 
	C651.561646,147.441330 654.518433,147.723572 658.189209,146.348511 
	C678.591309,138.705841 697.173157,127.565971 715.972473,116.810387 
	C744.068909,100.735680 771.531067,83.757729 796.070862,62.436008 
	C800.288513,58.771454 804.883850,59.009052 808.190918,62.399689 
	C811.264038,65.550415 811.470886,70.597572 807.938599,74.695076 
	C799.456970,84.533890 790.685242,94.122673 782.026855,103.809006 
	C774.062439,112.719009 766.093018,121.624603 757.195679,131.572006 
	C770.302795,129.098526 781.726746,125.745590 793.142944,122.369888 
	C795.377197,121.709236 797.576538,120.921387 799.766785,120.123055 
	C803.981384,118.586823 808.056641,118.391998 811.239075,122.086990 
	C814.643860,126.040215 814.905823,130.427399 812.416077,135.075684 
	C808.719421,141.977493 805.126465,148.935547 801.543579,155.897537 
	C793.761658,171.018646 785.852966,186.120392 783.807861,203.357849 
	C783.044067,209.796066 782.472656,216.294312 782.407043,222.771210 
	C782.209534,242.267471 782.665833,261.775269 782.203125,281.262817 
	C781.439697,313.416046 779.578674,345.473602 770.333313,376.606842 
	C764.814331,395.191467 754.817871,411.547028 745.183167,428.098907 
	C744.443176,429.370117 743.681396,430.628693 742.962402,431.838287 
	C744.282410,434.134460 746.574646,434.509644 748.432800,435.475433 
	C762.258362,442.661438 774.590576,451.494720 782.158508,465.659088 
	C790.927185,482.071106 792.702393,498.215729 779.626648,513.952393 
	C782.368652,515.234863 784.792908,515.399109 787.205383,515.752319 
	C793.180115,516.627075 798.975830,518.034180 803.871643,521.907471 
	C813.789246,529.753784 815.806335,541.682373 808.471497,551.927063 
	C806.161865,555.152832 806.241821,557.156555 809.475342,559.182861 
	C809.615723,559.270874 809.735962,559.390381 809.868835,559.490967 
	C827.533691,572.868652 824.650513,586.073486 810.043823,599.190063 
	C792.513855,614.931824 771.749023,625.760559 750.677795,635.799194 
	C713.943787,653.299683 676.434631,668.938538 636.755859,678.578674 
	C610.029053,685.072083 582.922729,689.727478 555.395081,690.698914 
	C537.732788,691.322205 520.169128,688.945007 502.782043,685.814148 
	C498.931549,685.120789 496.153961,685.772766 493.286041,688.412231 
	C476.386139,703.966003 458.236206,717.619507 436.335754,725.585754 
	C433.790741,726.511536 431.820770,728.923767 429.445435,730.427612 
	C421.074493,735.727417 412.173096,739.689148 402.329620,741.500671 
	C397.594910,742.371948 392.988190,743.910950 388.611389,746.041443 
	C375.677917,752.337036 371.650116,764.124146 378.374603,776.825500 
	C383.462036,786.434814 388.026794,796.228882 390.151276,806.956726 
	C393.570129,824.220581 390.534485,840.585754 381.694519,855.570007 
	C366.072479,882.050171 343.515106,901.112976 315.901123,914.150818 
	C306.521118,918.579590 296.355896,920.750305 285.807098,920.299805 
	C281.050018,920.096558 276.585236,918.944763 272.542664,916.405518 
	C266.900696,912.861633 265.160400,907.438477 267.804993,901.284912 
	C268.786072,899.002136 270.086761,896.838928 271.401520,894.720398 
	C276.970428,885.746643 277.883545,875.888855 276.453217,865.794067 
	C275.239716,857.229614 268.884277,852.104309 259.823914,851.320435 
	C251.364853,850.588684 243.776550,853.032104 236.377975,856.917114 
	C207.660919,871.996643 192.753235,897.054077 185.365082,927.448059 
	C181.939178,941.541748 179.401688,955.793884 181.136536,970.457153 
	C181.525558,973.745361 181.416855,977.128662 181.192001,980.444763 
	C180.844925,985.563904 178.841751,989.909363 173.837357,992.027588 
	C168.678085,994.211548 164.339615,992.042419 160.641968,988.575562 
	C153.343628,981.732727 150.656403,972.620544 148.739487,963.222290 
	C145.536392,947.518127 146.582245,931.684875 147.878891,915.921692 
	C149.923538,891.065247 156.775146,867.504395 168.564392,845.490295 
	C179.701630,824.693848 195.914017,808.289856 214.137909,793.684082 
	C224.277191,785.557861 234.614716,777.657715 244.443039,769.169495 
	C261.516876,754.423828 267.232208,735.706116 262.318512,713.783264 
	C259.345367,700.518372 259.212769,700.605469 245.682770,700.186768 
	C228.658295,699.660095 212.351318,696.051147 196.999283,688.509827 
	C182.393997,681.335327 172.922333,670.280273 171.209335,653.650208 
	C170.183136,643.688049 172.960175,634.503723 178.158630,626.069153 
	C187.140991,611.495239 200.019760,601.115784 214.602219,592.612061 
	C216.883804,591.281616 219.123138,589.878723 221.913559,588.187134 
	C199.901138,562.919250 196.001251,535.137634 209.456055,504.554779 
M384.565674,705.830750 
	C399.786499,714.089905 415.559143,715.295410 431.852478,709.463196 
	C445.355286,704.629883 457.117828,696.788086 468.324677,688.052002 
	C471.788818,685.351624 475.449677,682.774414 478.150360,678.869446 
	C472.013031,674.799744 466.409332,670.660645 461.671997,665.423157 
	C447.919250,650.218384 449.907532,631.074097 466.483765,619.133911 
	C470.086609,616.538635 473.793854,616.293396 477.842468,617.620789 
	C480.800049,618.590576 481.916992,620.402893 481.788239,623.628174 
	C481.584259,628.737427 477.863464,631.081665 474.620728,633.853210 
	C468.029877,639.486389 467.285919,646.437439 472.851318,653.083862 
	C478.197968,659.469055 484.691742,664.306519 492.761078,666.748169 
	C507.848602,671.313232 523.490356,672.512512 539.055847,673.592163 
	C565.012085,675.392700 590.571655,671.485962 615.870667,666.214355 
	C672.653687,654.382385 725.418396,632.109802 775.632935,603.509399 
	C785.459778,597.912292 794.970154,591.690430 802.600830,583.066223 
	C805.362061,579.945557 805.430420,577.274170 802.061035,574.606201 
	C799.973145,572.953003 798.002808,571.148926 796.010193,569.378235 
	C786.524902,560.949341 785.857849,554.912415 793.272766,544.787964 
	C797.618042,538.854858 796.412109,534.885681 789.282898,533.120300 
	C783.971008,531.804932 778.448120,531.366699 773.084534,530.229614 
	C758.190063,527.072021 754.974304,518.016052 764.438110,506.198761 
	C764.750244,505.808990 765.079590,505.430145 765.428650,505.073242 
	C773.789307,496.523010 774.083984,487.056396 769.217651,476.598816 
	C762.145203,461.400269 748.806335,453.863281 734.558350,447.278992 
	C732.193848,446.186310 730.865051,447.634918 729.477295,449.192322 
	C723.166565,456.274689 717.316040,463.767029 710.167175,470.094696 
	C687.393616,490.252197 660.986328,504.106476 632.925476,515.246216 
	C591.601013,531.651306 548.283875,539.683472 504.601898,546.262390 
	C491.083984,548.298340 477.594086,550.509949 465.061859,556.318909 
	C456.114899,560.466064 449.929535,566.786133 455.171661,578.652710 
	C457.215698,583.279785 455.962128,585.030701 451.130829,586.805664 
	C443.539124,589.594849 437.419098,586.086121 431.651672,582.093567 
	C417.925110,572.591248 403.754761,564.013123 388.044189,558.102478 
	C362.645203,548.546814 338.809570,536.029602 317.151459,519.585327 
	C296.683044,504.044464 277.219971,487.623383 269.367371,461.647308 
	C269.292145,461.398499 268.865234,461.256012 268.397156,460.913666 
	C259.305359,466.289490 252.328140,474.184845 245.186295,481.777710 
	C235.316101,492.271210 226.968155,503.828522 222.076279,517.639648 
	C214.055389,540.284912 219.410904,563.376038 236.362259,578.405334 
	C250.375748,590.829895 266.767853,596.435852 285.418732,595.973938 
	C297.391296,595.677368 308.646423,591.909302 320.145691,589.282532 
	C325.489075,588.061951 331.535400,590.377197 332.749481,593.966797 
	C333.914429,597.410950 329.982208,602.928772 324.945251,604.885010 
	C324.327789,605.124817 323.666565,605.253296 323.023865,605.426697 
	C318.684479,606.597717 314.340149,607.750488 310.005676,608.939270 
	C285.641876,615.621643 262.206940,613.624817 239.920639,601.333252 
	C237.580963,600.042847 235.597809,600.216553 233.345657,601.375305 
	C226.968918,604.656128 220.688416,608.109070 214.780350,612.170715 
	C205.348984,618.654602 196.961685,626.253052 191.468552,636.467163 
	C183.692169,650.926819 187.822235,664.573303 202.228073,672.441833 
	C216.116806,680.027954 231.149704,683.380188 246.852432,683.623596 
	C264.674805,683.899963 282.471741,684.481262 300.268494,685.565002 
	C329.334717,687.335022 357.154816,694.033630 384.565674,705.830750 
M595.636108,186.222488 
	C544.875549,208.460678 498.746216,237.094772 463.152924,281.988556 
	C516.941223,252.969788 568.272339,276.638489 590.590881,312.230347 
	C616.841553,354.092834 608.530762,408.305267 570.433228,441.230469 
	C553.153809,456.163971 532.718445,463.884735 509.927246,463.830566 
	C477.996552,463.754700 452.608154,449.905548 433.337189,424.605072 
	C428.473145,428.456757 426.315796,433.449249 424.200684,438.530121 
	C420.250488,448.019196 413.988068,455.190186 405.000885,460.735291 
	C394.740326,467.066101 383.010956,465.994293 376.067657,452.074249 
	C372.790192,445.503448 370.333710,438.614471 368.618835,431.443634 
	C367.477936,426.673035 366.798462,421.736847 364.507812,416.807831 
	C339.180084,435.321350 311.536224,440.312225 281.621338,431.899567 
	C280.253357,448.521637 288.708954,470.768616 301.079163,483.577545 
	C324.364288,507.688477 352.062195,525.315613 382.847656,538.101562 
	C400.105652,545.269287 417.578827,551.830261 432.061584,564.172913 
	C433.155762,565.105408 434.434174,566.023804 436.033142,566.020386 
	C447.544189,545.122986 452.323792,541.381226 476.154236,534.938782 
	C489.198486,531.412415 502.616089,529.853821 515.919434,527.749146 
	C551.990784,522.042847 587.667969,514.840820 621.934082,501.747467 
	C657.693726,488.083466 690.792175,470.528259 715.441833,440.007568 
	C735.347290,415.360870 751.305847,388.759796 758.243530,357.398804 
	C763.484558,333.707123 764.859009,309.613525 765.575256,285.503296 
	C766.173706,265.356293 765.811829,245.179153 765.783020,225.015503 
	C765.749817,201.809006 770.270813,179.712158 781.325012,159.118866 
	C784.440430,153.314987 787.282654,147.364441 790.415588,141.153076 
	C786.497070,141.214401 783.405457,142.512619 780.206665,143.280945 
	C769.537537,145.843597 759.031067,149.220810 747.899231,149.393143 
	C742.582031,149.475464 737.893921,148.350815 735.141785,143.299545 
	C732.293945,138.072495 734.673706,133.587036 737.618652,129.400803 
	C740.096130,125.879204 742.901428,122.588158 746.227844,118.345322 
	C737.167236,123.629761 729.109863,128.324707 721.056702,133.026749 
	C697.869202,146.565369 674.540100,159.830353 648.334412,166.840851 
	C630.413757,171.634933 613.253479,178.440994 595.636108,186.222488 
M432.064636,299.639160 
	C449.351288,267.658966 473.931946,242.176376 502.663269,220.392303 
	C540.501404,191.703415 582.931702,171.869904 627.290955,155.751938 
	C628.585327,155.281616 630.301636,155.431534 630.896912,153.567337 
	C626.876709,149.878555 622.086975,147.543915 617.243774,145.334137 
	C600.041077,137.485123 581.738953,133.018951 563.655823,127.832039 
	C520.015076,115.314194 476.576233,115.885674 433.245483,129.241440 
	C420.006775,133.321976 407.116333,138.220337 395.085663,145.205399 
	C390.630524,147.792084 386.572754,147.094910 383.973724,143.553055 
	C381.525024,140.216156 382.045441,135.458344 385.438354,132.219299 
	C386.866364,130.856079 388.623718,129.821045 390.295074,128.734818 
	C391.681610,127.833694 392.411255,126.811272 392.102997,125.024750 
	C390.775848,117.333275 389.545135,109.625175 388.163635,101.219162 
	C379.423340,127.795593 372.964508,154.020920 369.803253,181.120117 
	C366.422424,210.101349 370.222992,237.322006 384.462799,263.192749 
	C397.985657,287.760895 404.404938,314.380463 404.240265,343.308563 
	C407.954071,343.308563 412.083710,343.356567 416.210205,343.263763 
	C416.942535,343.247345 418.126678,342.811554 418.314423,342.287262 
	C420.037903,337.475098 423.174774,332.803162 422.435638,327.613617 
	C421.907471,323.905212 422.378082,320.719604 423.602844,317.434448 
	C425.818726,311.490875 428.609253,305.814362 432.064636,299.639160 
M223.774948,807.288879 
	C175.847916,843.924744 161.096085,894.167725 164.101776,951.685486 
	C164.884491,942.831909 166.802246,934.041565 168.792175,925.296936 
	C175.211777,897.086060 187.669632,872.171082 210.736313,853.912659 
	C224.829132,842.757568 240.128586,833.770874 259.341187,834.608704 
	C275.951752,835.333130 288.544525,845.197388 292.482513,861.265869 
	C294.307709,868.713379 293.860779,876.091431 292.767731,883.551025 
	C291.777008,890.312134 289.406799,896.616638 285.695221,903.579590 
	C288.748871,903.579590 290.714264,903.827026 292.596832,903.536926 
	C300.883087,902.260132 308.795410,899.851135 316.164337,895.704041 
	C332.177490,886.692200 345.998535,875.016724 357.956421,861.159485 
	C377.644409,838.344177 380.068329,814.559326 365.638580,788.168701 
	C363.316040,783.921082 361.032837,779.640381 359.824829,774.934204 
	C354.718231,755.039795 365.138824,736.946472 386.190277,729.000244 
	C387.757111,728.408752 389.546204,728.220032 390.832642,726.866638 
	C354.746063,708.978333 316.959869,700.550171 276.466827,701.392456 
	C277.221375,704.721191 277.762726,707.131592 278.314362,709.539551 
	C284.806305,737.878235 277.340149,761.780884 255.746582,781.339417 
	C245.726715,790.414978 234.667526,798.182068 223.774948,807.288879 
M467.642853,434.859589 
	C489.232849,448.376312 512.221863,451.140686 536.033569,442.354095 
	C573.975159,428.353485 595.124451,389.184235 587.578857,348.154877 
	C579.397095,303.666901 532.738281,274.988678 489.897034,288.771698 
	C456.478149,299.523346 437.331329,323.446564 432.940979,357.791138 
	C428.876343,389.587677 440.882782,415.484222 467.642853,434.859589 
M344.509705,410.013062 
	C376.449585,391.752075 390.432068,355.432556 379.638092,318.650208 
	C368.285400,279.963898 328.101868,256.434723 289.312042,265.333069 
	C252.347733,273.812683 228.102585,309.105988 232.123215,348.404785 
	C237.535355,401.304504 293.900024,436.556427 344.509705,410.013062 
M359.830505,248.495682 
	C348.580658,220.109558 351.441559,190.934479 355.263947,161.626160 
	C346.103241,172.761200 335.995819,182.699524 326.685577,193.344376 
	C314.564972,207.202393 304.994202,222.379257 302.667480,241.279633 
	C302.120026,245.726929 303.292969,246.805237 307.470581,246.828583 
	C320.129974,246.899231 332.169220,249.899811 343.751068,255.006409 
	C352.935455,259.055939 360.973511,264.879852 369.833984,271.852173 
	C366.224731,263.454681 363.166443,256.339050 359.830505,248.495682 
M387.515869,389.911865 
	C385.518982,392.982452 383.557617,396.076996 381.509705,399.113159 
	C380.537811,400.554077 379.827209,401.992981 380.374725,403.767792 
	C383.806854,414.893463 386.665314,426.213135 391.219177,436.963409 
	C393.555328,442.478271 397.621948,442.873260 401.184265,437.994232 
	C402.447021,436.264801 403.537323,434.301208 404.228119,432.280945 
	C407.432281,422.910339 413.273407,415.258453 419.917084,408.188354 
	C422.226898,405.730286 422.312531,403.616028 421.222900,400.621704 
	C417.905334,391.504852 415.910614,382.069611 415.707794,372.331940 
	C415.451630,360.032959 415.492554,360.196045 403.220825,359.835052 
	C399.669983,359.730621 398.148346,360.750610 397.450378,364.172058 
	C395.640869,373.042389 392.250824,381.356323 387.515869,389.911865 
z"></path>
<path fill="#000000" opacity="1.000000" stroke="none" d="
M520.112122,336.950531 
	C511.828918,364.049469 503.667145,390.767731 495.463806,417.473236 
	C494.881134,419.370026 494.170563,421.271637 493.211121,422.999847 
	C490.902191,427.158661 486.923798,428.802094 483.228241,427.341675 
	C479.298187,425.788574 477.133331,421.629486 478.425140,417.081604 
	C481.469086,406.365021 484.692963,395.698151 487.960327,385.046814 
	C493.861542,365.809326 499.889771,346.610779 505.779999,327.369995 
	C508.528137,318.393158 514.770081,312.300323 522.608826,305.633087 
	C523.592590,316.984741 524.406494,326.930389 520.112122,336.950531 
z"></path>
<path fill="#000000" opacity="1.000000" stroke="none" d="
M472.366455,354.026611 
	C470.766113,361.374695 468.700043,367.901215 462.351288,372.242340 
	C459.126312,374.447449 457.345428,374.634491 455.705353,370.536987 
	C453.695740,365.516174 453.259796,360.681824 454.790009,355.467346 
	C457.317627,346.853821 467.065063,328.733643 473.293793,322.693787 
	C473.096222,333.755585 474.073608,343.664581 472.366455,354.026611 
z"></path>
<path fill="#000000" opacity="1.000000" stroke="none" d="
M521.803345,390.045471 
	C524.854736,378.965668 531.158997,370.004700 536.335815,360.120544 
	C537.244446,360.904266 537.884521,361.194489 537.892395,361.500916 
	C538.201050,373.556885 540.734253,385.637207 537.166870,397.648621 
	C535.311035,403.897186 530.033752,409.730988 526.226135,409.130493 
	C522.570374,408.553894 519.768616,400.894012 520.850220,394.334015 
	C521.065918,393.025665 521.432556,391.742218 521.803345,390.045471 
z"></path>
<path fill="#000000" opacity="1.000000" stroke="none" d="
M300.221222,294.396057 
	C302.468903,288.739532 306.939789,285.819977 311.553619,283.102142 
	C314.163116,281.565002 315.652222,282.031158 316.289154,285.451721 
	C317.614594,292.569946 316.684479,299.080627 313.613342,305.722839 
	C303.567474,327.449646 293.864136,349.335724 284.142975,371.211151 
	C281.103424,378.050995 275.602997,381.833221 268.824097,385.073914 
	C266.292023,377.780548 265.941681,371.173248 268.993713,364.424042 
	C278.514771,343.369293 287.916199,322.260437 297.350494,301.166504 
	C298.300262,299.042938 299.158051,296.878204 300.221222,294.396057 
z"></path>
<path fill="#000000" opacity="1.000000" stroke="none" d="
M249.811203,334.944000 
	C247.753723,328.404846 248.561462,322.545807 250.907181,316.583618 
	C254.924454,306.372864 258.149750,295.769135 267.700104,288.954468 
	C269.525299,287.652100 270.948761,285.546082 273.895813,285.940430 
	C274.910522,291.595398 274.638489,297.484161 273.080414,302.644958 
	C269.318085,315.107300 267.816772,329.022278 255.085815,336.902771 
	C252.544769,338.475677 250.806519,338.589569 249.811203,334.944000 
z"></path>
<path fill="#000000" opacity="1.000000" stroke="none" d="
M331.074036,353.501587 
	C329.070557,361.236450 328.597900,369.115509 321.643860,374.190308 
	C317.135468,377.480316 316.631073,377.326660 313.966400,372.575073 
	C310.365112,366.153290 312.445160,360.016235 314.058655,353.765381 
	C316.617218,343.853302 323.405151,336.525421 329.579742,327.244873 
	C332.166016,336.673523 330.933990,344.914459 331.074036,353.501587 
z"></path>
</svg>